<?xml version="1.0" encoding="utf-8"?>
<!-- Generator: Adobe Illustrator 24.1.2, SVG Export Plug-In . SVG Version: 6.00 Build 0)  -->
<svg version="1.1" id="Layer_2" xmlns="http://www.w3.org/2000/svg" xmlns:xlink="http://www.w3.org/1999/xlink" x="0px" y="0px"
	 viewBox="0 0 25.92 25.92" style="enable-background:new 0 0 25.92 25.92;" xml:space="preserve">
<style type="text/css">
	.st0{fill:#FFFFFF;}
</style>
<g>
	<g>
		<g>
			<path class="st0" d="M0.37,24.17c-0.44,0.44-0.49,1.11-0.11,1.49c0.38,0.38,1.05,0.33,1.49-0.11l23.8-23.8
				c0.44-0.44,0.49-1.11,0.11-1.49s-1.05-0.33-1.49,0.11L0.37,24.17z"/>
		</g>
		<g>
			<path class="st0" d="M0.26,0.26c-0.38,0.38-0.33,1.05,0.11,1.49l23.8,23.8c0.44,0.44,1.11,0.49,1.49,0.11
				c0.38-0.38,0.33-1.05-0.11-1.49L1.75,0.37C1.31-0.07,0.64-0.12,0.26,0.26z"/>
		</g>
	</g>
</g>
</svg>
