<?xml version="1.0" encoding="utf-8"?>
<!-- Generator: Adobe Illustrator 24.1.2, SVG Export Plug-In . SVG Version: 6.00 Build 0)  -->
<svg version="1.1" id="Layer_1" xmlns="http://www.w3.org/2000/svg" xmlns:xlink="http://www.w3.org/1999/xlink" x="0px" y="0px"
	 viewBox="0 0 35.93 19.95" style="enable-background:new 0 0 35.93 19.95;" xml:space="preserve">
<style type="text/css">
	.st0{fill:rgba(255,255,255,0.3);}
</style>
<g>
	<g>
		<g>
			<path class="st0" d="M0,10.02C0,10.56,0.51,11,1.13,11H34.8c0.62,0,1.13-0.44,1.13-0.98c0-0.54-0.51-0.98-1.13-0.98H1.13
				C0.51,9.05,0,9.49,0,10.02z"/>
		</g>
		<g>
			<path class="st0" d="M1.13,0C0.51,0,0,0.44,0,0.98c0,0.54,0.51,0.98,1.13,0.98H34.8c0.62,0,1.13-0.44,1.13-0.98
				C35.93,0.44,35.42,0,34.8,0H1.13z"/>
		</g>
		<g>
			<path class="st0" d="M0,18.97c0,0.54,0.51,0.98,1.13,0.98H34.8c0.62,0,1.13-0.44,1.13-0.98c0-0.54-0.51-0.98-1.13-0.98H1.13
				C0.51,17.99,0,18.43,0,18.97z"/>
		</g>
	</g>
</g>
</svg>
